#Comment line ignore any data following # character 
#Hierarchical Translation and Rotation (.htr) file 
[Header]	
#Header keywords are followed by a single value 
FileType HTR		#Single word string
DataType HTRS		#Translation followed by rotation and scale data
FileVersion 1		#integer
NumSegments 84		#integer
NumFrames 2		#integer
DataFrameRate 30		#integer, data frame rate in this file
EulerRotationOrder ZYX
CalibrationUnits mm
RotationUnits Degrees
GlobalAxisofGravity Y
BoneLengthAxis Y
ScaleFactor 1.00
[SegmentNames&Hierarchy]
#CHILD	PARENT
MASTER GLOBAL
root MASTER
chest root
L_mid_tent01 root
R_mid_tent01 root
spine01 root
Bip01_Neck chest
L_humerus chest
R_humerus chest
weapon_bone chest
Bip01_Head Bip01_Neck
eye_left_bone Bip01_Head
eye_right_bone Bip01_Head
L_forearm L_humerus
L_front_hand L_forearm
L_weapon_bone L_forearm
L_front_hand01_01 L_front_hand
L_front_hand02_01 L_front_hand
L_front_hand03_01 L_front_hand
L_front_hand01_02 L_front_hand01_01
L_front_hand02_02 L_front_hand02_01
L_front_hand03_02 L_front_hand03_01
R_forearm R_humerus
R_front_hand R_forearm
R_weapon_bone R_forearm
R_front_hand01_01 R_front_hand
R_front_hand02_01 R_front_hand
R_front_hand03_01 R_front_hand
R_front_hand01_02 R_front_hand01_01
R_front_hand02_02 R_front_hand02_01
R_front_hand03_02 R_front_hand03_01
null_rope01_connect L_mid_tent01
Rope1_Seg01 null_rope01_connect
Rope1_Seg02 Rope1_Seg01
Rope1_Seg03 Rope1_Seg02
Rope1_Seg04 Rope1_Seg03
Rope1_Seg05 Rope1_Seg04
Rope1_Seg06 Rope1_Seg05
Rope1_Seg07 Rope1_Seg06
Rope1_Seg09 Rope1_Seg07
L_mid_hand01 Rope1_Seg09
L_mid_hand02 Rope1_Seg09
L_mid_hand03 Rope1_Seg09
null_rope02_connect R_mid_tent01
Rope2_Seg01 null_rope02_connect
Rope2_Seg02 Rope2_Seg01
Rope2_Seg03 Rope2_Seg02
Rope2_Seg04 Rope2_Seg03
Rope2_Seg05 Rope2_Seg04
Rope2_Seg06 Rope2_Seg05
Rope2_Seg07 Rope2_Seg06
Rope2_Seg09 Rope2_Seg07
R_mid_hand01 Rope2_Seg09
R_mid_hand02 Rope2_Seg09
R_mid_hand03 Rope2_Seg09
spine02 spine01
spine03 spine02
pelvis spine03
null_rope03_connect pelvis
null_rope04_connect pelvis
Rope3_Seg01 null_rope03_connect
Rope3_Seg02 Rope3_Seg01
Rope3_Seg03 Rope3_Seg02
Rope3_Seg04 Rope3_Seg03
Rope3_Seg05 Rope3_Seg04
Rope3_Seg06 Rope3_Seg05
Rope3_Seg07 Rope3_Seg06
Rope3_Seg08 Rope3_Seg07
Rope3_Seg09 Rope3_Seg08
R_rear_hand01 Rope3_Seg09
R_rear_hand02 Rope3_Seg09
R_rear_hand03 Rope3_Seg09
Rope4_Seg01 null_rope04_connect
Rope4_Seg02 Rope4_Seg01
Rope4_Seg03 Rope4_Seg02
Rope4_Seg04 Rope4_Seg03
Rope4_Seg05 Rope4_Seg04
Rope4_Seg06 Rope4_Seg05
Rope4_Seg07 Rope4_Seg06
Rope4_Seg08 Rope4_Seg07
Rope4_Seg09 Rope4_Seg08
L_rear_hand01 Rope4_Seg09
L_rear_hand02 Rope4_Seg09
L_rear_hand03 Rope4_Seg09
[BasePosition]
#SegmentName Tx, Ty, Tz, Rx, Ry, Rz, BoneLength
MASTER 0.000000 0.000000 0.000000 -90.000000 0.000000 0.000000 10.000000 
root 0.000000 0.000000 0.000000 0.000000 0.000000 0.000000 10.000000 
chest 0.000000 0.000000 0.000000 0.000000 0.000000 0.000000 10.000000 
L_mid_tent01 0.000000 0.000000 0.000000 0.000000 0.000000 0.000000 10.000000 
R_mid_tent01 0.000000 0.000000 0.000000 0.000000 0.000000 0.000000 10.000000 
spine01 0.000000 0.000000 0.000000 0.000000 0.000000 0.000000 10.000000 
Bip01_Neck 0.000000 0.000000 0.000000 0.000000 0.000000 0.000000 10.000000 
L_humerus 0.000000 0.000000 0.000000 0.000000 0.000000 0.000000 10.000000 
R_humerus 0.000000 0.000000 0.000000 0.000000 0.000000 0.000000 10.000000 
weapon_bone 0.000000 0.000000 0.000000 0.000000 0.000000 0.000000 10.000000 
Bip01_Head 0.000000 0.000000 0.000000 0.000000 0.000000 0.000000 10.000000 
eye_left_bone 0.000000 0.000000 0.000000 0.000000 0.000000 0.000000 10.000000 
eye_right_bone 0.000000 0.000000 0.000000 0.000000 0.000000 0.000000 10.000000 
L_forearm 0.000000 0.000000 0.000000 0.000000 0.000000 0.000000 10.000000 
L_front_hand 0.000000 0.000000 0.000000 0.000000 0.000000 0.000000 10.000000 
L_weapon_bone 0.000000 0.000000 0.000000 0.000000 0.000000 0.000000 10.000000 
L_front_hand01_01 0.000000 0.000000 0.000000 0.000000 0.000000 0.000000 10.000000 
L_front_hand02_01 0.000000 0.000000 0.000000 0.000000 0.000000 0.000000 10.000000 
L_front_hand03_01 0.000000 0.000000 0.000000 0.000000 0.000000 0.000000 10.000000 
L_front_hand01_02 0.000000 0.000000 0.000000 0.000000 0.000000 0.000000 10.000000 
L_front_hand02_02 0.000000 0.000000 0.000000 0.000000 0.000000 0.000000 10.000000 
L_front_hand03_02 0.000000 0.000000 0.000000 0.000000 0.000000 0.000000 10.000000 
R_forearm 0.000000 0.000000 0.000000 0.000000 0.000000 0.000000 10.000000 
R_front_hand 0.000000 0.000000 0.000000 0.000000 0.000000 0.000000 10.000000 
R_weapon_bone 0.000000 0.000000 0.000000 0.000000 0.000000 0.000000 10.000000 
R_front_hand01_01 0.000000 0.000000 0.000000 0.000000 0.000000 0.000000 10.000000 
R_front_hand02_01 0.000000 0.000000 0.000000 0.000000 0.000000 0.000000 10.000000 
R_front_hand03_01 0.000000 0.000000 0.000000 0.000000 0.000000 0.000000 10.000000 
R_front_hand01_02 0.000000 0.000000 0.000000 0.000000 0.000000 0.000000 10.000000 
R_front_hand02_02 0.000000 0.000000 0.000000 0.000000 0.000000 0.000000 10.000000 
R_front_hand03_02 0.000000 0.000000 0.000000 0.000000 0.000000 0.000000 10.000000 
null_rope01_connect 0.000000 0.000000 0.000000 0.000000 0.000000 0.000000 10.000000 
Rope1_Seg01 0.000000 0.000000 0.000000 0.000000 0.000000 0.000000 10.000000 
Rope1_Seg02 0.000000 0.000000 0.000000 0.000000 0.000000 0.000000 10.000000 
Rope1_Seg03 0.000000 0.000000 0.000000 0.000000 0.000000 0.000000 10.000000 
Rope1_Seg04 0.000000 0.000000 0.000000 0.000000 0.000000 0.000000 10.000000 
Rope1_Seg05 0.000000 0.000000 0.000000 0.000000 0.000000 0.000000 10.000000 
Rope1_Seg06 0.000000 0.000000 0.000000 0.000000 0.000000 0.000000 10.000000 
Rope1_Seg07 0.000000 0.000000 0.000000 0.000000 0.000000 0.000000 10.000000 
Rope1_Seg09 0.000000 0.000000 0.000000 0.000000 0.000000 0.000000 10.000000 
L_mid_hand01 0.000000 0.000000 0.000000 0.000000 0.000000 0.000000 10.000000 
L_mid_hand02 0.000000 0.000000 0.000000 0.000000 0.000000 0.000000 10.000000 
L_mid_hand03 0.000000 0.000000 0.000000 0.000000 0.000000 0.000000 10.000000 
null_rope02_connect 0.000000 0.000000 0.000000 0.000000 0.000000 0.000000 10.000000 
Rope2_Seg01 0.000000 0.000000 0.000000 0.000000 0.000000 0.000000 10.000000 
Rope2_Seg02 0.000000 0.000000 0.000000 0.000000 0.000000 0.000000 10.000000 
Rope2_Seg03 0.000000 0.000000 0.000000 0.000000 0.000000 0.000000 10.000000 
Rope2_Seg04 0.000000 0.000000 0.000000 0.000000 0.000000 0.000000 10.000000 
Rope2_Seg05 0.000000 0.000000 0.000000 0.000000 0.000000 0.000000 10.000000 
Rope2_Seg06 0.000000 0.000000 0.000000 0.000000 0.000000 0.000000 10.000000 
Rope2_Seg07 0.000000 0.000000 0.000000 0.000000 0.000000 0.000000 10.000000 
Rope2_Seg09 0.000000 0.000000 0.000000 0.000000 0.000000 0.000000 10.000000 
R_mid_hand01 0.000000 0.000000 0.000000 0.000000 0.000000 0.000000 10.000000 
R_mid_hand02 0.000000 0.000000 0.000000 0.000000 0.000000 0.000000 10.000000 
R_mid_hand03 0.000000 0.000000 0.000000 0.000000 0.000000 0.000000 10.000000 
spine02 0.000000 0.000000 0.000000 0.000000 0.000000 0.000000 10.000000 
spine03 0.000000 0.000000 0.000000 0.000000 0.000000 0.000000 10.000000 
pelvis 0.000000 0.000000 0.000000 0.000000 0.000000 0.000000 10.000000 
null_rope03_connect 0.000000 0.000000 0.000000 0.000000 0.000000 0.000000 10.000000 
null_rope04_connect 0.000000 0.000000 0.000000 0.000000 0.000000 0.000000 10.000000 
Rope3_Seg01 0.000000 0.000000 0.000000 0.000000 0.000000 0.000000 10.000000 
Rope3_Seg02 0.000000 0.000000 0.000000 0.000000 0.000000 0.000000 10.000000 
Rope3_Seg03 0.000000 0.000000 0.000000 0.000000 0.000000 0.000000 10.000000 
Rope3_Seg04 0.000000 0.000000 0.000000 0.000000 0.000000 0.000000 10.000000 
Rope3_Seg05 0.000000 0.000000 0.000000 0.000000 0.000000 0.000000 10.000000 
Rope3_Seg06 0.000000 0.000000 0.000000 0.000000 0.000000 0.000000 10.000000 
Rope3_Seg07 0.000000 0.000000 0.000000 0.000000 0.000000 0.000000 10.000000 
Rope3_Seg08 0.000000 0.000000 0.000000 0.000000 0.000000 0.000000 10.000000 
Rope3_Seg09 0.000000 0.000000 0.000000 0.000000 0.000000 0.000000 10.000000 
R_rear_hand01 0.000000 0.000000 0.000000 0.000000 0.000000 0.000000 10.000000 
R_rear_hand02 0.000000 0.000000 0.000000 0.000000 0.000000 0.000000 10.000000 
R_rear_hand03 0.000000 0.000000 0.000000 0.000000 0.000000 0.000000 10.000000 
Rope4_Seg01 0.000000 0.000000 0.000000 0.000000 0.000000 0.000000 10.000000 
Rope4_Seg02 0.000000 0.000000 0.000000 0.000000 0.000000 0.000000 10.000000 
Rope4_Seg03 0.000000 0.000000 0.000000 0.000000 0.000000 0.000000 10.000000 
Rope4_Seg04 0.000000 0.000000 0.000000 0.000000 0.000000 0.000000 10.000000 
Rope4_Seg05 0.000000 0.000000 0.000000 0.000000 0.000000 0.000000 10.000000 
Rope4_Seg06 0.000000 0.000000 0.000000 0.000000 0.000000 0.000000 10.000000 
Rope4_Seg07 0.000000 0.000000 0.000000 0.000000 0.000000 0.000000 10.000000 
Rope4_Seg08 0.000000 0.000000 0.000000 0.000000 0.000000 0.000000 10.000000 
Rope4_Seg09 0.000000 0.000000 0.000000 0.000000 0.000000 0.000000 10.000000 
L_rear_hand01 0.000000 0.000000 0.000000 0.000000 0.000000 0.000000 10.000000 
L_rear_hand02 0.000000 0.000000 0.000000 0.000000 0.000000 0.000000 10.000000 
L_rear_hand03 0.000000 0.000000 0.000000 0.000000 0.000000 0.000000 10.000000 
#Beginning of Data. Separated by tabs
#Fr	Tx	Ty	Tz	Rx	Ry	Rz	SF
[MASTER]
33 0.000005 62.822109 0.000000 0.001660 0.001660 0.001660 62.822113
34 0.000005 62.822109 0.000000 0.001660 0.001660 0.001660 62.822113
[root]
33 -16.502295 -62.822117 1500.000000 -92.027367 -23.525562 -82.300766 1501.405640
34 -16.502295 -62.822117 1500.000000 -91.831932 -22.760328 -85.547295 1501.405640
[chest]
33 -84.512650 -34.090519 0.000000 -1.029447 -5.582586 -179.976227 91.129311
34 -84.512650 -34.090519 0.000000 -1.828936 -3.722329 -179.402786 91.129311
[L_mid_tent01]
33 27.299475 22.177563 -249.917999 -36.960411 51.243931 60.769367 252.380890
34 27.299471 22.177567 -249.917999 -29.262812 46.704792 60.551853 252.380890
[R_mid_tent01]
33 23.228794 24.509907 226.238495 159.789520 -34.550037 80.810509 228.744751
34 23.228794 24.509907 226.238495 166.716629 -40.065506 73.499123 228.744751
[spine01]
33 -0.361383 -0.195265 0.000000 0.487602 0.418206 14.253566 0.410763
34 -0.361383 -0.195265 0.000000 0.584679 0.425420 14.593733 0.410763
[Bip01_Neck]
33 165.484543 71.581718 0.000119 175.896118 1.177290 24.871183 180.302734
34 165.484543 71.581718 0.000119 175.896118 1.177290 24.871183 180.302734
[L_humerus]
33 -13.983130 -135.272980 -120.471481 35.660049 60.396503 128.783936 181.680161
34 -13.983130 -135.272980 -120.471481 28.838877 63.136959 120.972954 181.680161
[R_humerus]
33 -13.983309 -135.273102 125.287651 109.096298 -48.832844 -19.924358 184.909012
34 -13.983309 -135.273102 125.287651 102.337334 -61.428074 -11.445159 184.909012
[weapon_bone]
33 235.964890 -300.705902 0.000000 0.000000 -89.951546 -128.212341 382.234833
34 235.964890 -300.705902 0.000000 0.000000 -89.951546 -128.212341 382.234833
[Bip01_Head]
33 261.355804 108.959618 -2.864210 2.248029 5.843377 -62.458344 283.173553
34 261.355804 108.959633 -2.864210 2.248029 5.843378 -62.458351 283.173553
[eye_left_bone]
33 -24.626970 125.451866 -64.772606 0.000000 -90.000000 -99.840431 143.318359
34 -24.626970 125.451866 -64.772606 0.000000 -90.000000 -99.840431 143.318359
[eye_right_bone]
33 -24.626970 125.451866 64.327362 0.000000 -89.960434 80.159386 143.117676
34 -24.626970 125.451866 64.327362 0.000000 -89.960434 80.159386 143.117676
[L_forearm]
33 322.776093 0.000000 -0.000119 0.000183 0.002340 -81.045212 322.776093
34 322.776093 0.000000 -0.000119 0.000183 0.002340 -81.045212 322.776093
[L_front_hand]
33 241.149185 -0.042021 -3.300071 -178.663147 -1.834274 -27.422415 241.171753
34 241.149185 -0.042021 -3.300071 -178.663147 -1.834274 -27.422415 241.171753
[L_weapon_bone]
33 156.183838 0.000000 0.000000 0.001660 0.001660 0.001660 156.183838
34 156.183838 0.000000 0.000000 0.001660 0.001660 0.001660 156.183838
[L_front_hand01_01]
33 86.095154 20.947098 -0.655860 -0.363570 -0.473241 75.385529 88.609184
34 86.095154 20.947098 -0.655860 -0.363570 -0.473241 75.385529 88.609184
[L_front_hand02_01]
33 86.935165 -11.437475 24.513514 154.403519 -59.888931 -61.371990 91.046425
34 86.935165 -11.437475 24.513514 154.403519 -59.888931 -61.371990 91.046425
[L_front_hand03_01]
33 86.637497 -14.123976 -20.424902 -153.913849 58.118122 -62.702866 90.126129
34 86.637497 -14.123976 -20.424902 -153.913879 58.118130 -62.702892 90.126129
[L_front_hand01_02]
33 71.020905 -0.000179 0.000030 0.000334 -0.002323 -106.379684 71.020905
34 71.020905 -0.000179 0.000030 0.000334 -0.002323 -106.379684 71.020905
[L_front_hand02_02]
33 71.020927 -0.000119 0.000060 0.000334 -0.002323 -106.379684 71.020927
34 71.020927 -0.000119 0.000060 0.000334 -0.002323 -106.379684 71.020927
[L_front_hand03_02]
33 71.020905 -0.000060 0.000060 0.000334 -0.002323 -106.379684 71.020905
34 71.020905 -0.000060 0.000060 0.000334 -0.002323 -106.379684 71.020905
[R_forearm]
33 322.776428 -0.000060 0.000030 0.200801 -0.072631 -71.613678 322.776428
34 322.776428 -0.000060 0.000030 0.203098 -0.061985 -73.731812 322.776428
[R_front_hand]
33 238.847015 -0.006795 2.210259 -1.045797 1.367799 -26.157869 238.857239
34 238.847015 -0.006795 2.210259 -1.132989 1.296335 -29.913046 238.857239
[R_weapon_bone]
33 155.664093 0.002503 -0.000030 0.002497 -0.002704 -31.830994 155.664078
34 155.664093 0.002503 -0.000030 0.002497 -0.002704 -31.830994 155.664078
[R_front_hand01_01]
33 87.624611 14.231146 22.918642 -154.633514 -59.950634 61.746063 91.683487
34 87.624611 14.231146 22.918642 -154.633499 -59.950619 61.746044 91.683487
[R_front_hand02_01]
33 89.356956 14.367283 -19.491137 154.595840 58.306175 63.741730 92.579636
34 89.356956 14.367283 -19.491137 154.595840 58.306175 63.741730 92.579636
[R_front_hand03_01]
33 87.286232 -22.307278 -0.143439 0.162155 -0.423168 -75.767921 90.091743
34 87.286232 -22.307278 -0.143439 0.162155 -0.423168 -75.767921 90.091743
[R_front_hand01_02]
33 71.020905 0.000060 0.000119 0.002323 -0.000334 106.381714 71.020905
34 71.020905 0.000060 0.000119 0.002323 -0.000334 106.381714 71.020905
[R_front_hand02_02]
33 71.020844 -0.000030 -0.000119 0.002323 -0.000334 106.381714 71.020836
34 71.020844 -0.000030 -0.000119 0.002323 -0.000334 106.381714 71.020836
[R_front_hand03_02]
33 71.020905 0.000000 0.000030 0.002323 -0.000334 106.381714 71.020905
34 71.020905 0.000000 0.000030 0.002323 -0.000334 106.381714 71.020905
[null_rope01_connect]
33 328.732483 0.000000 -0.000238 -175.098724 -28.982880 -146.113464 328.732483
34 328.732483 0.000000 -0.000238 -168.277695 -35.945068 -150.272568 328.732483
[Rope1_Seg01]
33 0.000000 0.000000 0.000000 3.310705 -12.343460 -82.312805 0.000000
34 0.000000 0.000000 0.000000 4.570618 -6.114048 -88.797470 0.000000
[Rope1_Seg02]
33 139.999863 -0.000179 0.000000 -0.033518 1.895635 -2.125939 139.999863
34 139.999863 -0.000179 0.000000 -0.187442 1.172083 -1.078464 139.999863
[Rope1_Seg03]
33 139.999924 0.000060 -0.000060 -0.058276 2.473994 -2.775027 139.999924
34 139.999924 0.000060 -0.000060 -0.268860 1.511935 -1.381860 139.999924
[Rope1_Seg04]
33 139.999924 -0.000060 -0.000119 -0.114565 3.373146 -3.777560 139.999924
34 139.999924 -0.000060 -0.000119 -0.457286 2.076797 -1.846772 139.999924
[Rope1_Seg05]
33 139.999832 0.000119 -0.000060 -2.977461 6.981578 -5.247207 139.999832
34 139.999832 0.000119 -0.000060 -2.057495 4.056601 -2.650094 139.999832
[Rope1_Seg06]
33 139.999954 0.000119 -0.000060 -0.708705 7.502792 -8.393745 139.999954
34 139.999954 0.000119 -0.000060 -0.525622 4.169508 -4.413174 139.999954
[Rope1_Seg07]
33 139.999985 0.000060 0.000000 24.923090 -0.154933 -9.687666 139.999985
34 139.999985 0.000060 0.000000 5.645464 0.670627 -4.318845 139.999985
[Rope1_Seg09]
33 121.602913 0.000119 -0.000089 -89.793175 -1.359789 0.847147 121.602913
34 121.602913 0.000119 -0.000089 -89.793175 -1.359789 0.847147 121.602913
[L_mid_hand01]
33 103.859421 1.038730 8.195221 105.620987 -22.988335 -6.761933 104.187431
34 103.859421 1.038730 8.195221 105.620987 -22.988335 -6.761933 104.187431
[L_mid_hand02]
33 105.572853 -4.139662 -10.864139 -139.491974 20.327143 -21.528740 106.211075
34 105.572853 -4.139662 -10.864139 -139.491974 20.327143 -21.528740 106.211075
[L_mid_hand03]
33 104.641464 17.579376 -3.913581 -17.354424 7.254999 25.905664 106.179977
34 104.641464 17.579376 -3.913581 -17.354424 7.254999 25.905664 106.179977
[null_rope02_connect]
33 328.732849 0.000179 -0.000119 -109.437317 44.906811 33.027992 328.732849
34 328.732849 0.000179 -0.000119 -117.012886 45.678970 20.087746 328.732849
[Rope2_Seg01]
33 -0.000042 0.000150 0.000017 -170.541794 62.587696 -53.436069 0.000157
34 -0.000041 0.000151 0.000013 177.006943 49.661739 -57.912285 0.000157
[Rope2_Seg02]
33 139.999741 -0.000060 -0.000119 -3.542223 -1.207702 4.607551 139.999756
34 139.999741 -0.000060 -0.000119 -8.924405 0.872555 6.505389 139.999756
[Rope2_Seg03]
33 140.000107 0.000030 0.000000 -3.342631 -1.717479 5.071029 140.000107
34 140.000107 0.000030 0.000000 -8.019485 0.360673 6.673294 140.000107
[Rope2_Seg04]
33 139.999802 0.000000 -0.000060 -0.576163 -0.857885 1.193072 139.999802
34 139.999802 0.000000 -0.000060 -6.131766 0.505869 5.429688 139.999802
[Rope2_Seg05]
33 139.999985 -0.000060 0.000119 -12.210810 -9.710322 28.098352 139.999985
34 139.999985 -0.000060 0.000119 -13.601340 -11.930597 23.187073 139.999985
[Rope2_Seg06]
33 139.999893 -0.000030 -0.000119 -5.504596 -18.535955 36.497070 139.999893
34 139.999893 -0.000030 -0.000119 -6.938897 -18.931168 23.353844 139.999893
[Rope2_Seg07]
33 139.999893 0.000060 -0.000060 3.144996 -6.875059 12.607079 139.999893
34 139.999893 0.000060 -0.000060 -0.274643 -9.374207 10.270026 139.999893
[Rope2_Seg09]
33 121.338966 0.000089 -0.000060 33.793236 -1.359788 -0.847141 121.338966
34 121.338966 0.000089 -0.000060 33.793236 -1.359788 -0.847141 121.338966
[R_mid_hand01]
33 104.680779 11.144459 -10.335981 -44.070736 19.764444 21.986286 105.778534
34 104.680779 11.144459 -10.335981 -44.070736 19.764444 21.986286 105.778534
[R_mid_hand02]
33 104.070427 2.443552 8.231699 74.148849 -24.768806 7.320621 104.424065
34 104.070427 2.443552 8.231699 74.148849 -24.768806 7.320621 104.424065
[R_mid_hand03]
33 106.028137 -11.221827 -5.996406 -166.566208 8.416404 -28.789036 106.788818
34 106.028137 -11.221827 -5.996406 -166.566208 8.416404 -28.789036 106.788818
[spine02]
33 129.756927 0.001550 0.000119 -0.188016 -4.023645 -5.197178 129.756927
34 129.756927 0.001550 0.000119 -0.204799 -4.032676 -4.966191 129.756927
[spine03]
33 79.115616 -0.000072 0.000000 1.907030 -2.965995 23.921795 79.115616
34 79.115616 -0.000054 0.000000 1.907030 -2.965995 23.921795 79.115616
[pelvis]
33 169.435242 0.051022 0.000000 -8.666252 2.279395 -3.669000 169.435257
34 169.435242 0.051022 0.000000 -7.414426 1.722796 -3.203271 169.435257
[null_rope03_connect]
33 -1.257226 -2.466202 137.391083 128.017883 -75.324921 -43.165333 137.418976
34 -1.257226 -2.466202 137.391083 128.924744 -78.320992 -46.169483 137.418976
[null_rope04_connect]
33 -1.259640 -2.480268 -137.844437 128.017883 -75.324921 -43.165333 137.872513
34 -1.259640 -2.480268 -137.844437 128.924744 -78.320992 -46.169483 137.872513
[Rope3_Seg01]
33 0.000000 0.000000 0.000000 -123.879234 26.540430 -59.233219 0.000000
34 0.000000 0.000000 0.000000 -125.719589 31.402004 -63.666798 0.000000
[Rope3_Seg02]
33 139.999924 -0.000119 0.000060 0.951833 -6.987409 -7.742518 139.999924
34 139.999924 -0.000119 0.000060 0.205957 -3.237234 -4.948382 139.999924
[Rope3_Seg03]
33 139.999924 -0.000119 0.000119 6.832716 -19.821579 -30.604452 139.999924
34 139.999924 -0.000119 0.000119 0.923179 -9.575015 -18.347750 139.999924
[Rope3_Seg04]
33 139.999924 0.000119 0.000000 55.022434 -33.740265 -0.324423 139.999924
34 139.999924 0.000119 0.000000 10.607727 -17.847332 -4.826380 139.999924
[Rope3_Seg05]
33 139.999924 -0.000238 0.000060 15.148629 17.061588 54.545464 139.999924
34 139.999924 -0.000238 0.000060 10.512973 7.808502 58.061642 139.999924
[Rope3_Seg06]
33 139.999893 -0.000119 -0.000060 0.655809 3.808436 11.558082 139.999893
34 139.999893 -0.000119 -0.000060 -0.800512 1.913272 10.534296 139.999893
[Rope3_Seg07]
33 139.999771 0.000060 -0.000119 0.506120 -0.008106 -0.028051 139.999771
34 139.999771 0.000060 -0.000119 0.476473 0.025755 0.155144 139.999771
[Rope3_Seg08]
33 139.999985 -0.000060 0.000000 0.535796 0.001652 0.001667 139.999985
34 139.999985 -0.000060 0.000000 0.535795 0.001653 0.001671 139.999985
[Rope3_Seg09]
33 90.185997 -0.000179 -0.000060 89.793228 -1.359877 -0.847183 90.185997
34 90.185997 -0.000179 -0.000060 89.793228 -1.359877 -0.847183 90.185997
[R_rear_hand01]
33 103.366196 -6.073594 -10.757982 -160.090088 14.865479 -24.717995 104.101845
34 103.366196 -6.073594 -10.757982 -160.090088 14.865479 -24.717995 104.101845
[R_rear_hand02]
33 100.509819 12.039542 -7.992327 -35.711582 16.148796 24.170401 101.543350
34 100.509819 12.039542 -7.992327 -35.711582 16.148796 24.170401 101.543350
[R_rear_hand03]
33 101.539970 5.215704 5.435467 83.699936 -25.497597 6.583542 101.819031
34 101.539970 5.215704 5.435467 83.699936 -25.497597 6.583542 101.819031
[Rope4_Seg01]
33 0.000006 -0.000042 -0.000017 43.574970 17.793224 -114.523094 0.000046
34 0.000007 -0.000041 -0.000013 43.446209 24.612217 -113.496178 0.000044
[Rope4_Seg02]
33 139.999985 0.000060 0.000119 -0.747296 0.281604 -6.438029 139.999985
34 139.999985 0.000060 0.000119 -0.237887 -0.547809 -4.766257 139.999985
[Rope4_Seg03]
33 139.999924 0.000000 -0.000238 -1.714533 0.564881 -9.777624 139.999924
34 139.999924 0.000000 -0.000238 -0.653337 -0.740321 -6.734237 139.999924
[Rope4_Seg04]
33 139.999985 0.000000 0.000119 -5.399004 2.584627 -18.703791 139.999985
34 139.999985 0.000000 0.000119 -2.570219 -1.496134 -14.035656 139.999985
[Rope4_Seg05]
33 139.999802 -0.000060 -0.000119 -4.719869 0.454477 -13.501935 139.999802
34 139.999802 -0.000060 -0.000119 -1.714038 -0.054926 -6.094095 139.999802
[Rope4_Seg06]
33 139.999924 0.000000 0.000060 -39.761139 -20.479031 -59.548061 139.999924
34 139.999924 0.000000 0.000060 4.740823 3.583740 21.715775 139.999924
[Rope4_Seg07]
33 139.999802 0.000000 0.000000 -63.554501 28.779911 -60.229183 139.999802
34 139.999802 0.000000 0.000000 -9.703669 15.051913 72.752235 139.999802
[Rope4_Seg08]
33 139.999924 0.000000 0.000119 -1.447465 0.001681 0.001639 139.999924
34 139.999924 0.000000 0.000119 -1.447504 0.001756 0.001779 139.999924
[Rope4_Seg09]
33 90.185791 0.000060 0.000060 -135.617828 2.228885 0.850567 90.185791
34 90.185791 0.000060 0.000060 -135.617828 2.228885 0.850567 90.185791
[L_rear_hand01]
33 101.696655 -8.392275 -7.654577 -36.242065 -14.765306 157.809067 102.329041
34 101.696655 -8.392275 -7.654577 -36.242050 -14.765300 157.809067 102.329041
[L_rear_hand02]
33 102.726799 -1.568258 5.773216 83.814362 23.151863 173.698151 102.900848
34 102.726799 -1.568258 5.773216 83.814362 23.151863 173.698151 102.900848
[L_rear_hand03]
33 104.552910 9.721220 -10.420293 -159.518845 -14.052428 -157.569275 105.519653
34 104.552910 9.721220 -10.420293 -159.518845 -14.052428 -157.569275 105.519653
